<svg version="1.1" id="Layer_1" xmlns="http://www.w3.org/2000/svg" xmlns:xlink="http://www.w3.org/1999/xlink" x="0px" y="0px"
	 width="100%" viewBox="0 0 1538 464" enable-background="new 0 0 1538 464" xml:space="preserve">
<path fill="#FFFFFF" opacity="1.000000" stroke="none" 
	d="
M1101.000000,465.000000 
	C734.045715,465.000000 367.591431,465.000000 1.068583,465.000000 
	C1.068583,310.398376 1.068583,155.796707 1.068583,1.097525 
	C513.666687,1.097525 1026.333374,1.097525 1538.972412,1.097525 
	C1538.972412,155.742020 1538.972412,310.371002 1538.972412,465.000000 
	C1393.129883,465.000000 1247.314941,465.000000 1101.000000,465.000000 
M84.999100,359.499878 
	C84.999100,366.596954 84.999100,373.694061 84.999100,380.661499 
	C176.472519,380.661499 267.347168,380.661499 358.075439,380.661499 
	C358.075439,336.444397 358.075439,292.569183 358.075439,248.488892 
	C353.648407,248.488892 349.642761,248.293823 345.664673,248.541809 
	C341.379669,248.808929 338.259521,247.370880 335.044189,244.373871 
	C305.424438,216.765305 270.353088,201.772827 229.832077,199.998428 
	C192.474518,198.362549 158.512329,208.553009 127.863495,229.918762 
	C125.221901,231.760254 122.524132,233.521164 119.646240,235.458282 
	C118.189308,227.949066 119.479713,223.152252 126.147507,218.743698 
	C192.816925,174.663773 281.551300,181.448929 340.459473,235.450378 
	C342.307983,237.144897 345.328186,238.216690 347.874115,238.368088 
	C354.611755,238.768677 361.388947,238.503845 368.518494,238.503845 
	C368.518494,286.340576 368.518494,333.441803 368.518494,380.771240 
	C375.475677,380.771240 382.042084,380.771240 389.001129,380.771240 
	C389.001129,378.783661 389.001129,376.992676 389.001129,375.201721 
	C389.001038,334.707458 389.381073,294.207336 388.755646,253.722733 
	C388.581299,242.437729 390.892578,233.241669 398.334412,224.671341 
	C405.337891,216.605820 411.198059,207.547516 417.849243,198.535706 
	C426.817657,210.728592 435.507385,222.289398 443.848938,234.096161 
	C445.523376,236.466217 446.699554,239.768341 446.711151,242.646347 
	C446.888702,286.806030 446.834930,330.966675 446.834991,375.127075 
	C446.834991,376.923492 446.834991,378.719879 446.834991,380.757080 
	C465.246765,380.757080 483.313354,380.757080 501.482605,380.757080 
	C501.482605,282.184998 501.482605,183.824722 501.482605,85.408752 
	C362.553162,85.408752 223.980804,85.408752 84.999100,85.408752 
	C84.999100,176.604630 84.999100,267.552307 84.999100,359.499878 
M438.503723,333.500244 
	C438.503754,304.030731 438.521149,274.561157 438.463898,245.091751 
	C438.460144,243.160355 438.489471,240.803955 437.477386,239.368820 
	C431.176086,230.433609 424.582123,221.704788 417.815613,212.542511 
	C411.508423,221.107208 405.384613,229.139999 399.631470,237.429977 
	C398.153900,239.559006 397.116333,242.496429 397.107452,245.066727 
	C396.955994,288.854126 396.996490,332.642181 397.007416,376.430115 
	C397.007782,377.869537 397.142303,379.308899 397.211487,380.692444 
	C411.097565,380.692444 424.643433,380.692444 438.503540,380.692444 
	C438.503540,365.089996 438.503540,349.795166 438.503723,333.500244 
M551.154480,344.499969 
	C551.154480,356.585114 551.154480,368.670227 551.154480,381.005249 
	C563.923096,381.005249 576.059570,381.099579 588.193359,380.958496 
	C592.998474,380.902618 597.892761,380.809021 602.580994,379.889282 
	C615.229492,377.407990 623.367981,364.131195 619.976257,351.942627 
	C617.867798,344.365417 612.426453,339.952881 604.469360,337.295044 
	C611.520569,334.217712 616.676575,330.310272 618.078979,323.032837 
	C620.786743,308.981201 610.625732,297.303223 595.174133,297.035278 
	C583.524902,296.833252 571.869324,296.994965 560.216614,296.994781 
	C557.285217,296.994751 554.353821,296.994781 551.154541,296.994781 
	C551.154541,312.922791 551.154541,328.211365 551.154480,344.499969 
M1400.504272,296.996155 
	C1395.743530,296.996155 1390.982910,296.996155 1386.252808,296.996155 
	C1386.252808,325.285187 1386.252808,352.989807 1386.252808,381.005371 
	C1399.954346,381.005371 1413.401123,381.072784 1426.846191,380.959229 
	C1430.317139,380.929962 1433.844727,380.634277 1437.241089,379.943726 
	C1452.242432,376.893707 1460.510132,359.571930 1452.444946,347.112305 
	C1449.690186,342.856781 1444.730225,340.028717 1440.810791,336.577423 
	C1441.272583,336.340942 1442.601807,335.747681 1443.844727,335.008911 
	C1449.689453,331.535034 1453.059082,326.578918 1453.187622,319.588867 
	C1453.423706,306.745758 1444.246094,297.437592 1430.455566,297.059265 
	C1420.811401,296.794739 1411.154541,297.000488 1400.504272,296.996155 
M714.995178,375.397461 
	C714.995178,377.169739 714.995178,378.941986 714.995178,380.632446 
	C721.906616,380.632446 728.283508,380.632446 735.078674,380.632446 
	C735.078674,369.524384 735.078674,358.784821 735.078674,347.844330 
	C738.323669,347.844330 741.175171,348.126953 743.946350,347.775604 
	C747.746704,347.293762 749.497437,348.746033 750.754456,352.339905 
	C753.765137,360.947571 757.170532,369.422852 760.653931,377.853546 
	C761.197205,379.168274 762.946106,380.802429 764.207886,380.864716 
	C770.472290,381.173767 776.760254,381.005646 783.805603,381.005646 
	C778.560974,368.394958 773.563660,356.379028 768.525818,344.265472 
	C769.398560,343.694916 769.919922,343.322052 770.470520,342.998993 
	C779.768250,337.543884 784.239258,328.323761 782.463806,318.250610 
	C780.391968,306.495575 773.953430,299.664764 762.451477,297.758606 
	C757.896545,297.003723 753.181885,297.066589 748.537598,297.026611 
	C737.443848,296.931091 726.348755,296.995758 714.995361,296.995758 
	C714.995361,323.177277 714.995361,348.799255 714.995178,375.397461 
M818.362427,381.003357 
	C819.298950,380.085327 820.871704,379.272278 821.044006,378.228149 
	C821.445251,375.796295 821.098816,373.250488 821.190369,370.755798 
	C821.310852,367.474152 820.571167,363.677948 821.962036,361.026733 
	C824.833008,355.554565 828.869690,350.693970 832.836853,344.992401 
	C838.551636,357.418671 843.941040,369.137543 849.292236,380.773376 
	C856.562378,380.773376 863.635925,380.773376 871.266296,380.773376 
	C864.418213,366.121277 858.318115,351.571136 850.883362,337.738281 
	C846.594910,329.759247 846.831543,323.846527 852.658020,316.978638 
	C857.719543,311.012604 861.574951,304.023285 866.291504,296.997345 
	C860.595886,296.997345 855.770325,297.151276 850.961060,296.938507 
	C848.161987,296.814667 846.484863,297.683105 844.919800,300.114563 
	C838.079956,310.741150 831.000671,321.213806 823.979675,331.723297 
	C823.327393,332.699707 822.475098,333.542511 821.016724,335.280151 
	C821.016724,321.863525 821.016724,309.619171 821.016724,297.303894 
	C814.470947,297.303894 808.245789,297.303894 802.144775,297.303894 
	C802.144775,325.326965 802.144775,353.041504 802.144775,381.003510 
	C807.433777,381.003510 812.408325,381.003510 818.362427,381.003357 
M1066.500000,381.008148 
	C1074.281128,381.008148 1082.062256,381.008148 1089.872070,381.008148 
	C1089.872070,375.288635 1089.872070,370.065948 1089.872070,364.429138 
	C1076.484253,364.429138 1063.396973,364.429138 1050.237793,364.429138 
	C1050.237793,358.140289 1050.237793,352.277649 1050.237793,346.129761 
	C1060.750000,346.129761 1070.877197,346.129761 1081.258667,346.129761 
	C1081.258667,340.752319 1081.258667,335.671082 1081.258667,330.140045 
	C1070.754150,330.140045 1060.511963,330.140045 1050.092041,330.140045 
	C1050.092041,324.448120 1050.092041,319.207642 1050.092041,313.380066 
	C1063.523804,313.380066 1076.723145,313.380066 1089.993164,313.380066 
	C1089.993164,307.681305 1089.993164,302.572052 1089.993164,297.295959 
	C1069.942261,297.295959 1050.076294,297.295959 1030.288696,297.295959 
	C1030.288696,325.326965 1030.288696,353.052551 1030.288696,381.008148 
	C1042.223389,381.008148 1053.861694,381.008148 1066.500000,381.008148 
M665.500000,381.009430 
	C676.241150,381.009430 686.982239,381.009430 697.574524,381.009430 
	C697.574524,375.111542 697.574524,370.015808 697.574524,364.422455 
	C684.223022,364.422455 671.138672,364.422455 657.801331,364.422455 
	C657.801331,358.174561 657.801331,352.434540 657.801331,346.201172 
	C668.274292,346.201172 678.520386,346.201172 688.883362,346.201172 
	C688.883362,340.648041 688.883362,335.592590 688.883362,330.063354 
	C678.344849,330.063354 668.092407,330.063354 657.891357,330.063354 
	C657.891357,324.348541 657.891357,319.118469 657.891357,313.412048 
	C671.334473,313.412048 684.428040,313.412048 697.520630,313.412048 
	C697.520630,307.683960 697.520630,302.449768 697.520630,297.323700 
	C677.443420,297.323700 657.698425,297.323700 637.989075,297.323700 
	C637.989075,325.276550 637.989075,352.895966 637.989075,381.009430 
	C646.933838,381.009430 655.716919,381.009430 665.500000,381.009430 
M894.533203,296.991547 
	C891.747437,296.991547 888.961731,296.991547 886.068848,296.991547 
	C886.068848,325.196136 886.068848,352.920135 886.068848,380.639587 
	C906.188049,380.639587 926.056152,380.639587 945.791016,380.639587 
	C945.791016,375.148346 945.791016,370.028503 945.791016,364.337952 
	C932.354431,364.337952 919.123779,364.337952 905.876953,364.337952 
	C905.876953,358.027252 905.876953,352.299286 905.876953,346.068970 
	C916.445801,346.068970 926.682678,346.068970 936.799316,346.068970 
	C936.799316,340.502228 936.799316,335.451691 936.799316,329.929932 
	C926.182129,329.929932 915.937378,329.929932 905.961792,329.929932 
	C905.961792,324.201752 905.961792,318.962708 905.961792,313.373566 
	C919.503052,313.373566 932.618591,313.373566 945.722900,313.373566 
	C945.722900,307.739868 945.722900,302.492493 945.722900,296.991547 
	C928.801575,296.991547 912.164429,296.991547 894.533203,296.991547 
M1333.485840,296.995422 
	C1329.500000,296.995422 1325.514160,296.995422 1321.336304,296.995422 
	C1312.369629,324.969452 1303.466553,352.744873 1294.471436,380.807678 
	C1300.636719,380.807678 1306.234009,380.807678 1311.940674,380.807678 
	C1313.777344,375.039307 1315.567261,369.417694 1317.292969,363.997803 
	C1326.525269,363.997803 1335.166870,363.997803 1344.070557,363.997803 
	C1345.837280,369.694855 1347.585449,375.331848 1349.282349,380.803589 
	C1356.521240,380.803589 1363.296631,380.803589 1370.647827,380.803589 
	C1361.828369,352.651245 1353.118286,324.848358 1344.392700,296.995422 
	C1340.778687,296.995422 1337.622681,296.995422 1333.485840,296.995422 
M1147.922363,342.686035 
	C1156.017212,327.677734 1164.111938,312.669434 1172.294067,297.499298 
	C1155.499634,295.287354 1155.497192,295.286163 1148.441040,309.352570 
	C1146.876953,312.470673 1145.360352,315.612732 1143.777100,318.720947 
	C1142.239136,321.740295 1140.643921,324.730347 1138.789307,328.277252 
	C1133.803101,318.386475 1129.288818,309.307312 1124.619751,300.308472 
	C1123.944946,299.007874 1122.563477,297.193054 1121.445801,297.146759 
	C1114.436768,296.856445 1107.409790,296.999969 1099.836792,296.999969 
	C1107.824097,311.629517 1115.235840,325.553131 1123.020142,339.265198 
	C1125.591797,343.795135 1126.707031,348.283112 1126.547485,353.451538 
	C1126.266357,362.554810 1126.468872,371.673004 1126.468872,380.738342 
	C1133.355835,380.738342 1139.623901,380.738342 1146.175049,380.738342 
	C1146.175049,370.166321 1146.104736,359.860443 1146.234253,349.557068 
	C1146.260376,347.481140 1147.044922,345.414734 1147.922363,342.686035 
M982.005493,311.504272 
	C982.005493,306.741150 982.005493,301.978027 982.005493,297.401611 
	C975.028687,297.401611 968.650696,297.401611 962.392151,297.401611 
	C962.392151,325.396240 962.392151,352.983490 962.392151,380.618256 
	C980.315247,380.618256 997.997620,380.618256 1015.605042,380.618256 
	C1015.605042,374.958893 1015.605042,369.690063 1015.605042,363.913177 
	C1004.323303,363.913177 993.273743,363.913177 982.005493,363.913177 
	C982.005493,346.433228 982.005493,329.468262 982.005493,311.504272 
M1228.822266,333.499969 
	C1228.822266,349.242340 1228.822266,364.984711 1228.822266,380.667419 
	C1246.965698,380.667419 1264.514404,380.667419 1281.997437,380.667419 
	C1281.997437,375.039215 1281.997437,369.752594 1281.997437,363.913269 
	C1270.785645,363.913269 1259.737915,363.913269 1248.257324,363.913269 
	C1248.257324,341.302979 1248.257324,319.248688 1248.257324,297.291626 
	C1241.542603,297.291626 1235.285034,297.291626 1228.822266,297.291626 
	C1228.822266,309.226013 1228.822266,320.862976 1228.822266,333.499969 
z"/>
<path fill="#02323D" opacity="1.000000" stroke="none" 
	d="
M84.999100,358.999939 
	C84.999100,267.552307 84.999100,176.604630 84.999100,85.408752 
	C223.980804,85.408752 362.553162,85.408752 501.482605,85.408752 
	C501.482605,183.824722 501.482605,282.184998 501.482605,380.757080 
	C483.313354,380.757080 465.246765,380.757080 446.834991,380.757080 
	C446.834991,378.719879 446.834991,376.923492 446.834991,375.127075 
	C446.834930,330.966675 446.888702,286.806030 446.711151,242.646347 
	C446.699554,239.768341 445.523376,236.466217 443.848938,234.096161 
	C435.507385,222.289398 426.817657,210.728592 417.849243,198.535706 
	C411.198059,207.547516 405.337891,216.605820 398.334412,224.671341 
	C390.892578,233.241669 388.581299,242.437729 388.755646,253.722733 
	C389.381073,294.207336 389.001038,334.707458 389.001129,375.201721 
	C389.001129,376.992676 389.001129,378.783661 389.001129,380.771240 
	C382.042084,380.771240 375.475677,380.771240 368.518494,380.771240 
	C368.518494,333.441803 368.518494,286.340576 368.518494,238.503845 
	C361.388947,238.503845 354.611755,238.768677 347.874115,238.368088 
	C345.328186,238.216690 342.307983,237.144897 340.459473,235.450378 
	C281.551300,181.448929 192.816925,174.663773 126.147507,218.743698 
	C119.479713,223.152252 118.189308,227.949066 119.646240,235.458282 
	C122.524132,233.521164 125.221901,231.760254 127.863495,229.918762 
	C158.512329,208.553009 192.474518,198.362549 229.832077,199.998428 
	C270.353088,201.772827 305.424438,216.765305 335.044189,244.373871 
	C338.259521,247.370880 341.379669,248.808929 345.664673,248.541809 
	C349.642761,248.293823 353.648407,248.488892 358.075439,248.488892 
	C358.075439,292.569183 358.075439,336.444397 358.075439,380.661499 
	C267.347168,380.661499 176.472519,380.661499 84.999100,380.661499 
	C84.999100,373.694061 84.999100,366.596954 84.999100,358.999939 
M250.017944,166.541565 
	C243.014435,162.745941 236.055740,158.862946 228.969299,155.229050 
	C227.566940,154.509933 225.300583,154.024002 224.065750,154.659882 
	C214.330078,159.673477 204.720062,164.935394 195.158417,170.276672 
	C194.099411,170.868256 193.067154,172.375320 192.924911,173.565643 
	C192.595810,176.319336 192.820312,179.139160 192.820312,182.782120 
	C198.966644,179.495636 204.466171,176.550934 209.969559,173.613449 
	C215.235367,170.802795 220.528290,165.757034 225.766785,165.811096 
	C231.226654,165.867462 236.647888,170.822052 242.063660,173.677444 
	C247.578690,176.585144 253.066483,179.544495 258.779327,182.595016 
	C259.887512,171.940277 259.887695,171.939972 251.552673,167.362900 
	C251.261734,167.203125 250.960388,167.062302 250.017944,166.541565 
M126.122177,272.710876 
	C126.122177,277.965088 126.122177,283.219299 126.122177,288.670959 
	C130.819061,288.670959 134.899719,288.670959 139.639587,288.670959 
	C139.639587,283.957031 139.639587,279.418365 139.639587,274.448608 
	C144.714294,274.448608 149.135269,274.448608 153.586685,274.448608 
	C153.586685,272.421753 153.586685,270.855652 153.586685,268.970520 
	C145.188721,268.970520 137.072495,268.877258 128.964493,269.093323 
	C127.994438,269.119171 127.069191,270.827026 126.122177,272.710876 
M183.404572,274.576843 
	C185.850739,274.576843 188.296906,274.576843 190.796432,274.576843 
	C190.796432,272.451904 190.796432,270.869934 190.796432,269.186157 
	C181.674408,269.186157 172.785507,269.186157 163.745377,269.186157 
	C163.745377,275.788605 163.745377,282.169525 163.745377,288.464722 
	C168.278137,288.464722 172.479782,288.464722 177.084305,288.464722 
	C177.084305,283.635376 177.084305,279.218475 177.084305,274.577087 
	C179.150269,274.577087 180.796570,274.577087 183.404572,274.576843 
M276.029083,269.215881 
	C276.029083,275.701721 276.029083,282.187561 276.029083,288.538513 
	C280.386261,288.538513 284.458069,288.538513 288.953125,288.538513 
	C288.953125,283.792725 288.953125,279.374756 288.953125,274.464325 
	C293.778137,274.464325 298.176270,274.464325 302.896851,274.464325 
	C302.803192,272.377441 302.733124,270.815704 302.651337,268.992828 
	C293.823242,268.992828 285.376831,268.992828 276.029083,269.215881 
M238.217209,269.835052 
	C238.217209,276.094269 238.217209,282.353485 238.217209,288.585083 
	C242.952087,288.585083 247.035767,288.585083 251.625580,288.585083 
	C251.625580,283.886108 251.625580,279.464294 251.625580,274.449524 
	C256.513672,274.449524 260.898499,274.449524 265.629669,274.449524 
	C265.498901,272.246307 265.405792,270.677612 265.314606,269.141296 
	C256.179016,269.141296 247.521942,269.141296 238.217209,269.835052 
M315.633423,268.986938 
	C314.696045,269.730194 312.977417,270.442017 312.946014,271.221771 
	C312.715057,276.957916 312.821259,282.707642 312.821259,288.626068 
	C317.441315,288.626068 321.497253,288.626068 326.053070,288.626068 
	C326.053070,283.850311 326.053070,279.290314 326.053070,274.326569 
	C330.958923,274.326569 335.364594,274.326569 339.721619,274.326569 
	C339.721619,272.345978 339.721619,270.785095 339.721619,268.986359 
	C331.828491,268.986359 324.221863,268.986359 315.633423,268.986938 
M210.532440,268.986328 
	C207.431412,268.986328 204.330383,268.986328 201.356262,268.986328 
	C201.356262,275.924896 201.356262,282.296997 201.356262,288.516113 
	C205.803604,288.516113 209.875259,288.516113 214.374374,288.516113 
	C214.374374,283.753204 214.374374,279.329254 214.374374,274.336609 
	C219.185135,274.336609 223.565643,274.336609 228.033081,274.336609 
	C228.033081,272.303070 228.033081,270.853607 228.033081,268.986328 
	C222.436920,268.986328 216.979126,268.986328 210.532440,268.986328 
z"/>
<path fill="#02323D" opacity="1.000000" stroke="none" 
	d="
M438.503632,334.000275 
	C438.503540,349.795166 438.503540,365.089996 438.503540,380.692444 
	C424.643433,380.692444 411.097565,380.692444 397.211487,380.692444 
	C397.142303,379.308899 397.007782,377.869537 397.007416,376.430115 
	C396.996490,332.642181 396.955994,288.854126 397.107452,245.066727 
	C397.116333,242.496429 398.153900,239.559006 399.631470,237.429977 
	C405.384613,229.139999 411.508423,221.107208 417.815613,212.542511 
	C424.582123,221.704788 431.176086,230.433609 437.477386,239.368820 
	C438.489471,240.803955 438.460144,243.160355 438.463898,245.091751 
	C438.521149,274.561157 438.503754,304.030731 438.503632,334.000275 
M407.030701,288.564178 
	C409.631683,288.680450 412.232697,288.796692 414.940613,288.917755 
	C414.940613,277.533997 414.940613,266.626068 414.940613,255.722626 
	C412.071442,255.722626 409.479980,255.722626 406.578827,255.722626 
	C406.578827,266.609131 406.578827,277.205322 407.030701,288.564178 
M430.021118,265.538635 
	C430.021118,262.276611 430.021118,259.014587 430.021118,255.713531 
	C426.802368,255.713531 424.209351,255.713531 421.485352,255.713531 
	C421.485352,266.846466 421.485352,277.706360 421.485352,288.620300 
	C424.426666,288.620300 427.014893,288.620300 430.021118,288.620300 
	C430.021118,281.097717 430.021118,273.813202 430.021118,265.538635 
z"/>
<path fill="#04343F" opacity="1.000000" stroke="none" 
	d="
M551.154541,343.999939 
	C551.154541,328.211365 551.154541,312.922791 551.154541,296.994781 
	C554.353821,296.994781 557.285217,296.994751 560.216614,296.994781 
	C571.869324,296.994965 583.524902,296.833252 595.174133,297.035278 
	C610.625732,297.303223 620.786743,308.981201 618.078979,323.032837 
	C616.676575,330.310272 611.520569,334.217712 604.469360,337.295044 
	C612.426453,339.952881 617.867798,344.365417 619.976257,351.942627 
	C623.367981,364.131195 615.229492,377.407990 602.580994,379.889282 
	C597.892761,380.809021 592.998474,380.902618 588.193359,380.958496 
	C576.059570,381.099579 563.923096,381.005249 551.154480,381.005249 
	C551.154480,368.670227 551.154480,356.585114 551.154541,343.999939 
M599.161316,351.620239 
	C597.600342,347.846619 594.650818,345.772583 590.704041,345.639923 
	C584.277710,345.423950 577.838806,345.581635 571.267761,345.581635 
	C571.267761,352.071777 571.267761,358.473724 571.267761,365.039001 
	C577.670593,365.039001 583.817749,365.288330 589.935974,364.974274 
	C597.159363,364.603485 600.612183,359.778778 599.161316,351.620239 
M596.636169,325.888672 
	C599.589111,318.533539 597.012207,312.813324 589.976746,312.256287 
	C583.771118,311.765015 577.495911,312.153503 571.238525,312.153503 
	C571.238525,318.314758 571.238525,324.054047 571.238525,329.981537 
	C577.408264,329.981537 583.371887,330.305817 589.269165,329.822021 
	C591.629272,329.628387 593.843445,327.654633 596.636169,325.888672 
z"/>
<path fill="#03333F" opacity="1.000000" stroke="none" 
	d="
M1401.003784,296.996155 
	C1411.154541,297.000488 1420.811401,296.794739 1430.455566,297.059265 
	C1444.246094,297.437592 1453.423706,306.745758 1453.187622,319.588867 
	C1453.059082,326.578918 1449.689453,331.535034 1443.844727,335.008911 
	C1442.601807,335.747681 1441.272583,336.340942 1440.810791,336.577423 
	C1444.730225,340.028717 1449.690186,342.856781 1452.444946,347.112305 
	C1460.510132,359.571930 1452.242432,376.893707 1437.241089,379.943726 
	C1433.844727,380.634277 1430.317139,380.929962 1426.846191,380.959229 
	C1413.401123,381.072784 1399.954346,381.005371 1386.252808,381.005371 
	C1386.252808,352.989807 1386.252808,325.285187 1386.252808,296.996155 
	C1390.982910,296.996155 1395.743530,296.996155 1401.003784,296.996155 
M1431.942139,348.549042 
	C1423.863525,342.523041 1414.763306,346.200592 1405.832764,345.118561 
	C1405.832764,348.973328 1405.832642,352.121246 1405.832642,355.269135 
	C1405.832642,358.513397 1405.832764,361.757629 1405.832764,365.167419 
	C1411.188599,365.167419 1415.829346,365.172211 1420.470215,365.164062 
	C1421.632446,365.162018 1422.797241,365.160156 1423.956421,365.087067 
	C1433.244751,364.501312 1437.093506,357.270630 1431.942139,348.549042 
M1405.851807,328.380951 
	C1406.122437,328.940186 1406.399292,329.990143 1406.662842,329.986786 
	C1413.296997,329.903442 1419.996582,330.217865 1426.539795,329.358551 
	C1431.013306,328.770966 1432.846436,324.777557 1432.790161,320.369324 
	C1432.733765,315.956604 1429.716064,312.561249 1424.927612,312.271454 
	C1418.684814,311.893646 1412.401978,312.179016 1405.841064,312.179016 
	C1405.841064,317.480957 1405.841064,322.440979 1405.851807,328.380951 
z"/>
<path fill="#03333F" opacity="1.000000" stroke="none" 
	d="
M714.995239,374.909363 
	C714.995361,348.799255 714.995361,323.177277 714.995361,296.995758 
	C726.348755,296.995758 737.443848,296.931091 748.537598,297.026611 
	C753.181885,297.066589 757.896545,297.003723 762.451477,297.758606 
	C773.953430,299.664764 780.391968,306.495575 782.463806,318.250610 
	C784.239258,328.323761 779.768250,337.543884 770.470520,342.998993 
	C769.919922,343.322052 769.398560,343.694916 768.525818,344.265472 
	C773.563660,356.379028 778.560974,368.394958 783.805603,381.005646 
	C776.760254,381.005646 770.472290,381.173767 764.207886,380.864716 
	C762.946106,380.802429 761.197205,379.168274 760.653931,377.853546 
	C757.170532,369.422852 753.765137,360.947571 750.754456,352.339905 
	C749.497437,348.746033 747.746704,347.293762 743.946350,347.775604 
	C741.175171,348.126953 738.323669,347.844330 735.078674,347.844330 
	C735.078674,358.784821 735.078674,369.524384 735.078674,380.632446 
	C728.283508,380.632446 721.906616,380.632446 714.995178,380.632446 
	C714.995178,378.941986 714.995178,377.169739 714.995239,374.909363 
M734.840027,323.492126 
	C734.840027,326.598236 734.840027,329.704346 734.840027,332.980927 
	C741.137390,332.980927 746.935547,333.276611 752.689270,332.897369 
	C758.390259,332.521606 761.991394,328.232056 762.141724,322.567657 
	C762.282471,317.265076 758.882751,312.804260 753.312134,312.333374 
	C747.267700,311.822418 741.146790,312.217529 734.840027,312.217529 
	C734.840027,315.892609 734.840027,319.198334 734.840027,323.492126 
z"/>
<path fill="#03323E" opacity="1.000000" stroke="none" 
	d="
M817.872620,381.003418 
	C812.408325,381.003510 807.433777,381.003510 802.144775,381.003510 
	C802.144775,353.041504 802.144775,325.326965 802.144775,297.303894 
	C808.245789,297.303894 814.470947,297.303894 821.016724,297.303894 
	C821.016724,309.619171 821.016724,321.863525 821.016724,335.280151 
	C822.475098,333.542511 823.327393,332.699707 823.979675,331.723297 
	C831.000671,321.213806 838.079956,310.741150 844.919800,300.114563 
	C846.484863,297.683105 848.161987,296.814667 850.961060,296.938507 
	C855.770325,297.151276 860.595886,296.997345 866.291504,296.997345 
	C861.574951,304.023285 857.719543,311.012604 852.658020,316.978638 
	C846.831543,323.846527 846.594910,329.759247 850.883362,337.738281 
	C858.318115,351.571136 864.418213,366.121277 871.266296,380.773376 
	C863.635925,380.773376 856.562378,380.773376 849.292236,380.773376 
	C843.941040,369.137543 838.551636,357.418671 832.836853,344.992401 
	C828.869690,350.693970 824.833008,355.554565 821.962036,361.026733 
	C820.571167,363.677948 821.310852,367.474152 821.190369,370.755798 
	C821.098816,373.250488 821.445251,375.796295 821.044006,378.228149 
	C820.871704,379.272278 819.298950,380.085327 817.872620,381.003418 
z"/>
<path fill="#053540" opacity="1.000000" stroke="none" 
	d="
M1066.000000,381.008148 
	C1053.861694,381.008148 1042.223389,381.008148 1030.288696,381.008148 
	C1030.288696,353.052551 1030.288696,325.326965 1030.288696,297.295959 
	C1050.076294,297.295959 1069.942261,297.295959 1089.993164,297.295959 
	C1089.993164,302.572052 1089.993164,307.681305 1089.993164,313.380066 
	C1076.723145,313.380066 1063.523804,313.380066 1050.092041,313.380066 
	C1050.092041,319.207642 1050.092041,324.448120 1050.092041,330.140045 
	C1060.511963,330.140045 1070.754150,330.140045 1081.258667,330.140045 
	C1081.258667,335.671082 1081.258667,340.752319 1081.258667,346.129761 
	C1070.877197,346.129761 1060.750000,346.129761 1050.237793,346.129761 
	C1050.237793,352.277649 1050.237793,358.140289 1050.237793,364.429138 
	C1063.396973,364.429138 1076.484253,364.429138 1089.872070,364.429138 
	C1089.872070,370.065948 1089.872070,375.288635 1089.872070,381.008148 
	C1082.062256,381.008148 1074.281128,381.008148 1066.000000,381.008148 
z"/>
<path fill="#063541" opacity="1.000000" stroke="none" 
	d="
M665.000000,381.009430 
	C655.716919,381.009430 646.933838,381.009430 637.989075,381.009430 
	C637.989075,352.895966 637.989075,325.276550 637.989075,297.323700 
	C657.698425,297.323700 677.443420,297.323700 697.520630,297.323700 
	C697.520630,302.449768 697.520630,307.683960 697.520630,313.412048 
	C684.428040,313.412048 671.334473,313.412048 657.891357,313.412048 
	C657.891357,319.118469 657.891357,324.348541 657.891357,330.063354 
	C668.092407,330.063354 678.344849,330.063354 688.883362,330.063354 
	C688.883362,335.592590 688.883362,340.648041 688.883362,346.201172 
	C678.520386,346.201172 668.274292,346.201172 657.801331,346.201172 
	C657.801331,352.434540 657.801331,358.174561 657.801331,364.422455 
	C671.138672,364.422455 684.223022,364.422455 697.574524,364.422455 
	C697.574524,370.015808 697.574524,375.111542 697.574524,381.009430 
	C686.982239,381.009430 676.241150,381.009430 665.000000,381.009430 
z"/>
<path fill="#063540" opacity="1.000000" stroke="none" 
	d="
M895.030273,296.991547 
	C912.164429,296.991547 928.801575,296.991547 945.722900,296.991547 
	C945.722900,302.492493 945.722900,307.739868 945.722900,313.373566 
	C932.618591,313.373566 919.503052,313.373566 905.961792,313.373566 
	C905.961792,318.962708 905.961792,324.201752 905.961792,329.929932 
	C915.937378,329.929932 926.182129,329.929932 936.799316,329.929932 
	C936.799316,335.451691 936.799316,340.502228 936.799316,346.068970 
	C926.682678,346.068970 916.445801,346.068970 905.876953,346.068970 
	C905.876953,352.299286 905.876953,358.027252 905.876953,364.337952 
	C919.123779,364.337952 932.354431,364.337952 945.791016,364.337952 
	C945.791016,370.028503 945.791016,375.148346 945.791016,380.639587 
	C926.056152,380.639587 906.188049,380.639587 886.068848,380.639587 
	C886.068848,352.920135 886.068848,325.196136 886.068848,296.991547 
	C888.961731,296.991547 891.747437,296.991547 895.030273,296.991547 
z"/>
<path fill="#04333F" opacity="1.000000" stroke="none" 
	d="
M1333.976196,296.995422 
	C1337.622681,296.995422 1340.778687,296.995422 1344.392700,296.995422 
	C1353.118286,324.848358 1361.828369,352.651245 1370.647827,380.803589 
	C1363.296631,380.803589 1356.521240,380.803589 1349.282349,380.803589 
	C1347.585449,375.331848 1345.837280,369.694855 1344.070557,363.997803 
	C1335.166870,363.997803 1326.525269,363.997803 1317.292969,363.997803 
	C1315.567261,369.417694 1313.777344,375.039307 1311.940674,380.807678 
	C1306.234009,380.807678 1300.636719,380.807678 1294.471436,380.807678 
	C1303.466553,352.744873 1312.369629,324.969452 1321.336304,296.995422 
	C1325.514160,296.995422 1329.500000,296.995422 1333.976196,296.995422 
M1329.818115,322.726654 
	C1327.284546,331.028748 1324.751099,339.330841 1322.177368,347.764435 
	C1328.123291,347.764435 1333.528076,347.764435 1339.359253,347.764435 
	C1336.755249,339.041016 1334.265625,330.652618 1331.683838,322.292633 
	C1331.609741,322.052551 1330.558960,322.114014 1329.818115,322.726654 
z"/>
<path fill="#053440" opacity="1.000000" stroke="none" 
	d="
M1147.701172,343.014984 
	C1147.044922,345.414734 1146.260376,347.481140 1146.234253,349.557068 
	C1146.104736,359.860443 1146.175049,370.166321 1146.175049,380.738342 
	C1139.623901,380.738342 1133.355835,380.738342 1126.468872,380.738342 
	C1126.468872,371.673004 1126.266357,362.554810 1126.547485,353.451538 
	C1126.707031,348.283112 1125.591797,343.795135 1123.020142,339.265198 
	C1115.235840,325.553131 1107.824097,311.629517 1099.836792,296.999969 
	C1107.409790,296.999969 1114.436768,296.856445 1121.445801,297.146759 
	C1122.563477,297.193054 1123.944946,299.007874 1124.619751,300.308472 
	C1129.288818,309.307312 1133.803101,318.386475 1138.789307,328.277252 
	C1140.643921,324.730347 1142.239136,321.740295 1143.777100,318.720947 
	C1145.360352,315.612732 1146.876953,312.470673 1148.441040,309.352570 
	C1155.497192,295.286163 1155.499634,295.287354 1172.294067,297.499298 
	C1164.111938,312.669434 1156.017212,327.677734 1147.701172,343.014984 
z"/>
<path fill="#04333F" opacity="1.000000" stroke="none" 
	d="
M982.005493,312.003784 
	C982.005493,329.468262 982.005493,346.433228 982.005493,363.913177 
	C993.273743,363.913177 1004.323303,363.913177 1015.605042,363.913177 
	C1015.605042,369.690063 1015.605042,374.958893 1015.605042,380.618256 
	C997.997620,380.618256 980.315247,380.618256 962.392151,380.618256 
	C962.392151,352.983490 962.392151,325.396240 962.392151,297.401611 
	C968.650696,297.401611 975.028687,297.401611 982.005493,297.401611 
	C982.005493,301.978027 982.005493,306.741150 982.005493,312.003784 
z"/>
<path fill="#053440" opacity="1.000000" stroke="none" 
	d="
M1228.822266,332.999939 
	C1228.822266,320.862976 1228.822266,309.226013 1228.822266,297.291626 
	C1235.285034,297.291626 1241.542603,297.291626 1248.257324,297.291626 
	C1248.257324,319.248688 1248.257324,341.302979 1248.257324,363.913269 
	C1259.737915,363.913269 1270.785645,363.913269 1281.997437,363.913269 
	C1281.997437,369.752594 1281.997437,375.039215 1281.997437,380.667419 
	C1264.514404,380.667419 1246.965698,380.667419 1228.822266,380.667419 
	C1228.822266,364.984711 1228.822266,349.242340 1228.822266,332.999939 
z"/>
<path fill="#F8F9FA" opacity="1.000000" stroke="none" 
	d="
M250.340912,166.727097 
	C250.960388,167.062302 251.261734,167.203125 251.552673,167.362900 
	C259.887695,171.939972 259.887512,171.940277 258.779327,182.595016 
	C253.066483,179.544495 247.578690,176.585144 242.063660,173.677444 
	C236.647888,170.822052 231.226654,165.867462 225.766785,165.811096 
	C220.528290,165.757034 215.235367,170.802795 209.969559,173.613449 
	C204.466171,176.550934 198.966644,179.495636 192.820312,182.782120 
	C192.820312,179.139160 192.595810,176.319336 192.924911,173.565643 
	C193.067154,172.375320 194.099411,170.868256 195.158417,170.276672 
	C204.720062,164.935394 214.330078,159.673477 224.065750,154.659882 
	C225.300583,154.024002 227.566940,154.509933 228.969299,155.229050 
	C236.055740,158.862946 243.014435,162.745941 250.340912,166.727097 
z"/>
<path fill="#EEF1F2" opacity="1.000000" stroke="none" 
	d="
M126.122673,272.233093 
	C127.069191,270.827026 127.994438,269.119171 128.964493,269.093323 
	C137.072495,268.877258 145.188721,268.970520 153.586685,268.970520 
	C153.586685,270.855652 153.586685,272.421753 153.586685,274.448608 
	C149.135269,274.448608 144.714294,274.448608 139.639587,274.448608 
	C139.639587,279.418365 139.639587,283.957031 139.639587,288.670959 
	C134.899719,288.670959 130.819061,288.670959 126.122177,288.670959 
	C126.122177,283.219299 126.122177,277.965088 126.122673,272.233093 
z"/>
<path fill="#EEF1F2" opacity="1.000000" stroke="none" 
	d="
M182.923721,274.576965 
	C180.796570,274.577087 179.150269,274.577087 177.084305,274.577087 
	C177.084305,279.218475 177.084305,283.635376 177.084305,288.464722 
	C172.479782,288.464722 168.278137,288.464722 163.745377,288.464722 
	C163.745377,282.169525 163.745377,275.788605 163.745377,269.186157 
	C172.785507,269.186157 181.674408,269.186157 190.796432,269.186157 
	C190.796432,270.869934 190.796432,272.451904 190.796432,274.576843 
	C188.296906,274.576843 185.850739,274.576843 182.923721,274.576965 
z"/>
<path fill="#EEF1F2" opacity="1.000000" stroke="none" 
	d="
M276.479767,269.104370 
	C285.376831,268.992828 293.823242,268.992828 302.651337,268.992828 
	C302.733124,270.815704 302.803192,272.377441 302.896851,274.464325 
	C298.176270,274.464325 293.778137,274.464325 288.953125,274.464325 
	C288.953125,279.374756 288.953125,283.792725 288.953125,288.538513 
	C284.458069,288.538513 280.386261,288.538513 276.029083,288.538513 
	C276.029083,282.187561 276.029083,275.701721 276.479767,269.104370 
z"/>
<path fill="#EEF1F2" opacity="1.000000" stroke="none" 
	d="
M238.541031,269.488159 
	C247.521942,269.141296 256.179016,269.141296 265.314606,269.141296 
	C265.405792,270.677612 265.498901,272.246307 265.629669,274.449524 
	C260.898499,274.449524 256.513672,274.449524 251.625580,274.449524 
	C251.625580,279.464294 251.625580,283.886108 251.625580,288.585083 
	C247.035767,288.585083 242.952087,288.585083 238.217209,288.585083 
	C238.217209,282.353485 238.217209,276.094269 238.541031,269.488159 
z"/>
<path fill="#F7F9F9" opacity="1.000000" stroke="none" 
	d="
M316.124329,268.986633 
	C324.221863,268.986359 331.828491,268.986359 339.721619,268.986359 
	C339.721619,270.785095 339.721619,272.345978 339.721619,274.326569 
	C335.364594,274.326569 330.958923,274.326569 326.053070,274.326569 
	C326.053070,279.290314 326.053070,283.850311 326.053070,288.626068 
	C321.497253,288.626068 317.441315,288.626068 312.821259,288.626068 
	C312.821259,282.707642 312.715057,276.957916 312.946014,271.221771 
	C312.977417,270.442017 314.696045,269.730194 316.124329,268.986633 
z"/>
<path fill="#F7F9F9" opacity="1.000000" stroke="none" 
	d="
M211.026886,268.986328 
	C216.979126,268.986328 222.436920,268.986328 228.033081,268.986328 
	C228.033081,270.853607 228.033081,272.303070 228.033081,274.336609 
	C223.565643,274.336609 219.185135,274.336609 214.374374,274.336609 
	C214.374374,279.329254 214.374374,283.753204 214.374374,288.516113 
	C209.875259,288.516113 205.803604,288.516113 201.356262,288.516113 
	C201.356262,282.296997 201.356262,275.924896 201.356262,268.986328 
	C204.330383,268.986328 207.431412,268.986328 211.026886,268.986328 
z"/>
<path fill="#EEF1F2" opacity="1.000000" stroke="none" 
	d="
M406.804749,288.182861 
	C406.578827,277.205322 406.578827,266.609131 406.578827,255.722626 
	C409.479980,255.722626 412.071442,255.722626 414.940613,255.722626 
	C414.940613,266.626068 414.940613,277.533997 414.940613,288.917755 
	C412.232697,288.796692 409.631683,288.680450 406.804749,288.182861 
z"/>
<path fill="#F3F5F6" opacity="1.000000" stroke="none" 
	d="
M430.021118,266.033661 
	C430.021118,273.813202 430.021118,281.097717 430.021118,288.620300 
	C427.014893,288.620300 424.426666,288.620300 421.485352,288.620300 
	C421.485352,277.706360 421.485352,266.846466 421.485352,255.713531 
	C424.209351,255.713531 426.802368,255.713531 430.021118,255.713531 
	C430.021118,259.014587 430.021118,262.276611 430.021118,266.033661 
z"/>
<path fill="#FBFBFC" opacity="1.000000" stroke="none" 
	d="
M599.320007,351.976562 
	C600.612183,359.778778 597.159363,364.603485 589.935974,364.974274 
	C583.817749,365.288330 577.670593,365.039001 571.267761,365.039001 
	C571.267761,358.473724 571.267761,352.071777 571.267761,345.581635 
	C577.838806,345.581635 584.277710,345.423950 590.704041,345.639923 
	C594.650818,345.772583 597.600342,347.846619 599.320007,351.976562 
z"/>
<path fill="#FDFEFE" opacity="1.000000" stroke="none" 
	d="
M596.380127,326.189941 
	C593.843445,327.654633 591.629272,329.628387 589.269165,329.822021 
	C583.371887,330.305817 577.408264,329.981537 571.238525,329.981537 
	C571.238525,324.054047 571.238525,318.314758 571.238525,312.153503 
	C577.495911,312.153503 583.771118,311.765015 589.976746,312.256287 
	C597.012207,312.813324 599.589111,318.533539 596.380127,326.189941 
z"/>
<path fill="#FBFBFC" opacity="1.000000" stroke="none" 
	d="
M1432.212646,348.818542 
	C1437.093506,357.270630 1433.244751,364.501312 1423.956421,365.087067 
	C1422.797241,365.160156 1421.632446,365.162018 1420.470215,365.164062 
	C1415.829346,365.172211 1411.188599,365.167419 1405.832764,365.167419 
	C1405.832764,361.757629 1405.832642,358.513397 1405.832642,355.269135 
	C1405.832642,352.121246 1405.832764,348.973328 1405.832764,345.118561 
	C1414.763306,346.200592 1423.863525,342.523041 1432.212646,348.818542 
z"/>
<path fill="#FDFEFE" opacity="1.000000" stroke="none" 
	d="
M1405.846436,327.890991 
	C1405.841064,322.440979 1405.841064,317.480957 1405.841064,312.179016 
	C1412.401978,312.179016 1418.684814,311.893646 1424.927612,312.271454 
	C1429.716064,312.561249 1432.733765,315.956604 1432.790161,320.369324 
	C1432.846436,324.777557 1431.013306,328.770966 1426.539795,329.358551 
	C1419.996582,330.217865 1413.296997,329.903442 1406.662842,329.986786 
	C1406.399292,329.990143 1406.122437,328.940186 1405.846436,327.890991 
z"/>
<path fill="#FDFEFE" opacity="1.000000" stroke="none" 
	d="
M734.840027,322.998077 
	C734.840027,319.198334 734.840027,315.892609 734.840027,312.217529 
	C741.146790,312.217529 747.267700,311.822418 753.312134,312.333374 
	C758.882751,312.804260 762.282471,317.265076 762.141724,322.567657 
	C761.991394,328.232056 758.390259,332.521606 752.689270,332.897369 
	C746.935547,333.276611 741.137390,332.980927 734.840027,332.980927 
	C734.840027,329.704346 734.840027,326.598236 734.840027,322.998077 
z"/>
<path fill="#F7F9F9" opacity="1.000000" stroke="none" 
	d="
M1329.890869,322.380768 
	C1330.558960,322.114014 1331.609741,322.052551 1331.683838,322.292633 
	C1334.265625,330.652618 1336.755249,339.041016 1339.359253,347.764435 
	C1333.528076,347.764435 1328.123291,347.764435 1322.177368,347.764435 
	C1324.751099,339.330841 1327.284546,331.028748 1329.890869,322.380768 
z"/>
</svg>