<svg xmlns="http://www.w3.org/2000/svg" width="1832" height="302" viewBox="0 0 1832 302" version="1.1"><path d="M 124.500 86.062 L 108.500 94.851 108.200 100.426 C 108.035 103.491, 108.087 106, 108.315 106 C 108.543 106, 115.878 102.111, 124.615 97.358 L 140.500 88.716 146 91.634 C 149.025 93.239, 156.361 97.176, 162.303 100.383 L 173.106 106.212 172.803 100.433 L 172.500 94.653 163.500 89.777 C 158.550 87.095, 151.350 83.185, 147.500 81.087 L 140.500 77.274 124.500 86.062 M 122.500 113.577 C 107.846 115.618, 103.212 116.468, 94.500 118.712 C 75.701 123.555, 57.969 131.429, 42.500 141.805 L 35.500 146.500 35.200 152.250 C 35.035 155.412, 35.186 158, 35.535 158 C 35.885 158, 40.921 154.823, 46.728 150.940 C 108.501 109.634, 188.522 114.676, 244.208 163.383 L 252.916 171 261.958 171 L 271 171 271 236.500 L 271 302 276 302 L 281 302 281 231.500 L 281 161 268.973 161 L 256.946 161 248.223 153.741 C 223.675 133.315, 197.724 121.240, 165.854 115.416 C 157.822 113.949, 128.703 112.713, 122.500 113.577 M 315.209 141.250 L 301.028 160.500 301.014 231.250 L 301 302 305.250 302 L 309.500 302 309.258 232.750 L 309.017 163.500 319.178 149.705 C 327.412 138.525, 329.576 136.155, 330.595 137.205 C 331.286 137.917, 335.935 144.061, 340.926 150.859 L 350 163.217 350 232.609 L 350 302 354.250 302 L 358.500 302 358 230.735 L 357.500 159.470 343.661 140.735 C 336.049 130.431, 329.725 122, 329.606 122 C 329.488 122, 323.009 130.662, 315.209 141.250 M 318.225 194.250 L 318.500 210.500 322.750 210.807 L 327 211.115 327 194.557 L 327 178 322.475 178 L 317.950 178 318.225 194.250 M 333 194.557 L 333 211.115 337.250 210.807 L 341.500 210.500 341.775 194.250 L 342.050 178 337.525 178 L 333 178 333 194.557 M 42.437 192.304 C 42.149 193.054, 42.046 197.455, 42.207 202.084 L 42.500 210.500 49 210.500 L 55.500 210.500 55.795 203.795 L 56.089 197.089 62.795 196.795 C 69.202 196.513, 69.500 196.389, 69.500 194 L 69.500 191.500 56.230 191.221 C 45.756 191, 42.849 191.229, 42.437 192.304 M 79.214 200.750 L 79.500 210.500 85.750 210.798 L 92 211.095 92 204.048 L 92 197 99 197 L 106 197 106 194 L 106 191 92.464 191 L 78.928 191 79.214 200.750 M 116 201 L 116 211 122.500 211 L 129 211 129 204 L 129 197 136 197 L 143 197 143 194 L 143 191 129.500 191 L 116 191 116 201 M 153 201.019 L 153 211.095 159.250 210.798 L 165.500 210.500 165.795 203.795 L 166.089 197.089 172.795 196.795 C 179.202 196.513, 179.500 196.389, 179.500 194 L 179.500 191.500 166.250 191.221 L 153 190.942 153 201.019 M 189.425 192.334 C 189.144 193.067, 189.046 197.455, 189.207 202.084 L 189.500 210.500 196 210.500 L 202.500 210.500 202.796 203.750 L 203.091 197 209.546 197 L 216 197 216 194 L 216 191 202.969 191 C 193.030 191, 189.816 191.317, 189.425 192.334 M 226.214 200.750 L 226.500 210.500 232.750 210.798 L 239 211.095 239 204.048 L 239 197 246 197 L 253 197 253 194 L 253 191 239.464 191 L 225.928 191 226.214 200.750" stroke="none" fill="#f5f6f6" fill-rule="evenodd"/><path d="M 0 155 L 0 301 135.500 301 L 271 301 271 236 L 271 171 261.958 171 L 252.916 171 244.208 163.383 C 188.522 114.676, 108.501 109.634, 46.728 150.940 C 40.921 154.823, 35.885 158, 35.535 158 C 35.186 158, 35.035 155.412, 35.200 152.250 L 35.500 146.500 42.500 141.805 C 62.259 128.552, 85.815 119.415, 112 114.848 C 121.775 113.143, 153.199 113.140, 163 114.843 C 196.234 120.617, 223.216 132.933, 248.223 153.741 L 256.946 161 268.973 161 L 281 161 281 231 L 281 301 291 301 L 301 301 301.011 230.750 L 301.023 160.500 314.868 141.727 C 322.483 131.402, 328.950 122.716, 329.241 122.426 C 329.531 122.136, 336.120 130.518, 343.884 141.054 L 358 160.209 358 230.604 L 358 301 388 301 L 418 301 418 155 L 418 9 209 9 L 0 9 0 155 M 124.500 86.062 L 108.500 94.851 108.200 100.426 C 108.035 103.491, 108.087 106, 108.315 106 C 108.543 106, 115.878 102.111, 124.615 97.358 L 140.500 88.716 146 91.634 C 149.025 93.239, 156.361 97.176, 162.303 100.383 L 173.106 106.212 172.803 100.433 L 172.500 94.653 163.500 89.777 C 158.550 87.095, 151.350 83.185, 147.500 81.087 L 140.500 77.274 124.500 86.062 M 493.500 103.747 C 483.326 107.393, 475.959 114.151, 470.624 124.731 C 463.146 139.559, 462.949 166.111, 470.211 180.440 C 478.100 196.009, 489.116 203.149, 505.254 203.155 C 515.064 203.159, 521.545 201.032, 527.379 195.898 L 531.916 191.904 533.529 197.452 C 535.133 202.968, 535.165 203, 539.071 203 L 543 203 543 177.500 L 543 152 524.500 152 L 506 152 506 157 L 506 162 518 162 L 530 162 530 166.841 C 530 182.351, 520.695 192.445, 506.521 192.312 C 499.843 192.249, 492.261 189.133, 488.363 184.849 C 476.485 171.793, 475.917 136.597, 487.343 121.617 C 495.114 111.428, 513.134 110.258, 522.847 119.312 C 525.465 121.752, 529 128.123, 529 130.401 C 529 132.855, 530.754 133.199, 536.604 131.889 C 542.097 130.660, 542.170 130.598, 541.569 127.595 C 539.820 118.850, 532.070 109.158, 523.484 104.979 C 516.729 101.691, 501.037 101.047, 493.500 103.747 M 1436.500 103.747 C 1426.326 107.393, 1418.959 114.151, 1413.624 124.731 C 1406.146 139.559, 1405.949 166.111, 1413.211 180.440 C 1421.100 196.009, 1432.116 203.149, 1448.254 203.155 C 1458.064 203.159, 1464.545 201.032, 1470.379 195.898 L 1474.916 191.904 1476.529 197.452 C 1478.133 202.968, 1478.165 203, 1482.071 203 L 1486 203 1486 177.500 L 1486 152 1467.500 152 L 1449 152 1449 157 L 1449 162 1461 162 L 1473 162 1473 166.841 C 1473 182.351, 1463.695 192.445, 1449.521 192.312 C 1442.843 192.249, 1435.261 189.133, 1431.363 184.849 C 1419.485 171.793, 1418.917 136.597, 1430.343 121.617 C 1438.114 111.428, 1456.134 110.258, 1465.847 119.312 C 1468.465 121.752, 1472 128.123, 1472 130.401 C 1472 132.855, 1473.754 133.199, 1479.604 131.889 C 1485.097 130.660, 1485.170 130.598, 1484.569 127.595 C 1482.820 118.850, 1475.070 109.158, 1466.484 104.979 C 1459.729 101.691, 1444.037 101.047, 1436.500 103.747 M 606 110 L 606 117 612 117 L 618 117 618 110 L 618 103 612 103 L 606 103 606 110 M 681 120.203 L 681 137.406 677.250 133.813 C 671.754 128.548, 667.726 126.855, 660.598 126.813 C 644.842 126.723, 633.891 137.930, 630.900 157.207 C 628.425 173.161, 632.913 188.448, 642.559 196.917 C 647.876 201.586, 651.889 203.003, 659.718 202.978 C 668.212 202.951, 673.367 200.726, 678.306 194.956 L 682 190.640 682 195.820 L 682 201 687 201 L 692 201 692 152 L 692 103 686.500 103 L 681 103 681 120.203 M 749 152.500 L 749 202 755 202 L 761 202 761 152.500 L 761 103 755 103 L 749 103 749 152.500 M 1199 110 L 1199 117 1205 117 L 1211 117 1211 110 L 1211 103 1205 103 L 1199 103 1199 110 M 857 119.500 L 857 129 850.500 129 L 844 129 844 133.500 L 844 138 850.454 138 L 856.908 138 857.204 164.826 C 857.499 191.564, 857.508 191.664, 860 195.341 C 863.795 200.940, 869.613 203.330, 879.146 203.207 C 883.478 203.150, 887.467 202.829, 888.011 202.493 C 888.555 202.157, 889 199.900, 889 197.479 L 889 193.075 882.196 193.281 C 873.899 193.532, 870.583 191.760, 869.055 186.259 C 868.475 184.169, 868.009 172.623, 868.006 160.250 L 868 138 876.500 138 L 885 138 885 133.500 L 885 129 876.500 129 L 868 129 868 119.500 L 868 110 862.500 110 L 857 110 857 119.500 M 1159 119.500 L 1159 129 1152.500 129 L 1146 129 1146 133.500 L 1146 138 1152.454 138 L 1158.908 138 1159.204 164.826 C 1159.499 191.564, 1159.508 191.664, 1162 195.341 C 1165.795 200.940, 1171.613 203.330, 1181.146 203.207 C 1185.478 203.150, 1189.467 202.829, 1190.011 202.493 C 1190.555 202.157, 1191 199.900, 1191 197.479 L 1191 193.075 1184.196 193.281 C 1175.899 193.532, 1172.583 191.760, 1171.055 186.259 C 1170.475 184.169, 1170.009 172.623, 1170.006 160.250 L 1170 138 1178.500 138 L 1187 138 1187 133.500 L 1187 129 1178.500 129 L 1170 129 1170 119.500 L 1170 110 1164.500 110 L 1159 110 1159 119.500 M 1016.762 117.715 C 1013.467 118.215, 1008.241 123.190, 1007.372 126.654 C 1006.836 128.789, 1006.363 129.048, 1004.122 128.436 C 990.930 124.831, 979.588 126.886, 972.062 134.243 C 966.978 139.214, 965 144.018, 965 151.395 C 965 159.169, 965.831 161.599, 970.183 166.556 C 972.762 169.493, 973.166 170.443, 972 170.827 C 971.175 171.099, 969.038 172.779, 967.250 174.561 C 964.434 177.367, 964 178.479, 964 182.884 C 964 187.058, 964.509 188.538, 966.844 191.151 L 969.687 194.333 965.344 198.495 C 961.160 202.504, 961 202.879, 961 208.681 C 961 216.700, 963.533 220.517, 971.500 224.500 C 977.172 227.336, 978.271 227.519, 991.620 227.841 C 1012.668 228.349, 1023.441 224.861, 1028.147 216.016 C 1030.228 212.102, 1030.612 204.060, 1028.878 200.684 C 1027.202 197.422, 1022.863 193.011, 1019.712 191.365 C 1016.859 189.875, 1001.628 188.138, 990 187.977 C 977.674 187.806, 972.610 183.890, 977.445 178.270 C 979.765 175.572, 980.016 175.520, 989.272 175.832 C 1000.515 176.210, 1005.437 175.061, 1011.208 170.708 C 1017.223 166.172, 1020.006 160.248, 1019.978 152.038 C 1019.956 145.612, 1017.591 138.101, 1015.104 136.564 C 1013.384 135.501, 1013.803 132.197, 1015.928 130.072 C 1016.988 129.012, 1019.913 127.836, 1022.428 127.459 L 1027 126.773 1027 121.886 L 1027 117 1023.250 117.150 C 1021.188 117.232, 1018.268 117.487, 1016.762 117.715 M 588.138 127.171 C 582.362 128.181, 577.744 131.859, 574.309 138.185 L 571.500 143.359 571.208 135.679 L 570.916 128 565.958 128 L 561 128 561 165 L 561 202 566.391 202 L 571.783 202 572.268 179.750 C 572.824 154.211, 573.386 151.672, 579.992 144.833 C 583.855 140.835, 585.394 139.983, 590.750 138.883 L 597 137.600 597 132.417 C 597 126.465, 595.901 125.814, 588.138 127.171 M 1064.138 127.171 C 1058.362 128.181, 1053.744 131.859, 1050.309 138.185 L 1047.500 143.359 1047.208 135.679 L 1046.916 128 1041.958 128 L 1037 128 1037 165 L 1037 202 1042.391 202 L 1047.783 202 1048.268 179.750 C 1048.824 154.211, 1049.386 151.672, 1055.992 144.833 C 1059.855 140.835, 1061.394 139.983, 1066.750 138.883 L 1073 137.600 1073 132.417 C 1073 126.465, 1071.901 125.814, 1064.138 127.171 M 1531.138 127.171 C 1525.362 128.181, 1520.744 131.859, 1517.309 138.185 L 1514.500 143.359 1514.208 135.679 L 1513.916 128 1508.958 128 L 1504 128 1504 165 L 1504 202 1509.391 202 L 1514.783 202 1515.268 179.750 C 1515.824 154.211, 1516.386 151.672, 1522.992 144.833 C 1526.855 140.835, 1528.394 139.983, 1533.750 138.883 L 1540 137.600 1540 132.417 C 1540 126.465, 1538.901 125.814, 1531.138 127.171 M 802.189 129.136 C 799.818 130.309, 796.443 133.061, 794.689 135.251 L 791.500 139.233 791 133.866 L 790.500 128.500 785.250 128.198 L 780 127.895 780 164.948 L 780 202 785.385 202 L 790.771 202 791.186 178.250 C 791.557 156.997, 791.816 154.027, 793.646 150 C 799.977 136.066, 816.460 132.625, 823.736 143.717 C 825.294 146.092, 825.536 149.657, 825.808 174.203 L 826.116 202 831.558 202 L 837 202 837 173.114 L 837 144.228 834.207 138.864 C 832.052 134.726, 830.176 132.757, 826.001 130.250 C 821.259 127.403, 819.715 127, 813.544 127.001 C 808.367 127.001, 805.357 127.567, 802.189 129.136 M 912.703 128.442 C 903.397 131.762, 896.992 138.341, 892.831 148.855 C 889.569 157.101, 889.615 173.963, 892.923 182.500 C 895.945 190.295, 904.466 198.949, 911.473 201.336 C 916.960 203.206, 928.558 203.528, 934.177 201.967 C 939.809 200.403, 947.005 195.030, 950.683 189.641 C 955.090 183.185, 955.005 181.401, 950.250 180.558 C 948.188 180.192, 945.772 179.681, 944.882 179.421 C 943.801 179.106, 942.866 179.910, 942.065 181.843 C 940.549 185.502, 935.353 190.556, 931.685 191.939 C 927.188 193.634, 919.333 193.211, 915.086 191.044 C 907.951 187.404, 904.830 182.048, 903.552 171.250 L 902.931 166 929.466 166 L 956 166 955.992 163.750 C 955.974 158.318, 953.703 148.248, 951.396 143.372 C 948.365 136.965, 941.555 130.718, 935.266 128.575 C 929.644 126.659, 917.895 126.590, 912.703 128.442 M 1095.185 128.727 C 1088.543 130.683, 1081.425 136.943, 1079.524 142.500 C 1078.771 144.700, 1078.458 146.792, 1078.828 147.148 C 1079.197 147.505, 1081.750 148.073, 1084.500 148.411 L 1089.500 149.026 1091.500 144.780 C 1094.449 138.519, 1098.608 136.497, 1108.500 136.514 C 1121.020 136.536, 1124.972 139.643, 1126.461 150.634 L 1127.156 155.769 1113.328 156.252 C 1097.066 156.820, 1090.661 158.505, 1084.868 163.738 C 1079.190 168.868, 1077 173.670, 1077 180.992 C 1077 188.652, 1078.625 192.535, 1083.776 197.183 C 1088.734 201.657, 1093.146 202.987, 1103.054 202.994 C 1112.467 203.001, 1119.664 199.827, 1124.092 193.715 L 1127 189.700 1127.014 193.600 C 1127.041 201.428, 1127.533 202, 1134.233 202 L 1140.233 202 1139.550 199.250 C 1139.174 197.738, 1138.641 185.025, 1138.366 171 C 1137.810 142.611, 1137.070 138.399, 1131.724 133.217 C 1129.947 131.494, 1126.525 129.391, 1124.121 128.543 C 1118.387 126.519, 1102.332 126.622, 1095.185 128.727 M 1243.275 128.654 C 1228.943 133.729, 1220.078 152.616, 1222.845 172.180 C 1224.796 185.974, 1230.956 195.835, 1240.533 200.497 C 1245.278 202.807, 1257.739 203.686, 1263.551 202.121 C 1269.363 200.556, 1276.484 195.695, 1279.926 190.943 C 1285.352 183.454, 1287.336 176.680, 1287.380 165.500 C 1287.431 152.377, 1284.822 144.243, 1278.198 136.875 C 1271.622 129.561, 1265.683 127.001, 1255.500 127.089 C 1251.100 127.127, 1245.599 127.831, 1243.275 128.654 M 1322.189 129.136 C 1319.818 130.309, 1316.443 133.061, 1314.689 135.251 L 1311.500 139.233 1311 133.866 L 1310.500 128.500 1305.250 128.198 L 1300 127.895 1300 164.948 L 1300 202 1305.385 202 L 1310.771 202 1311.186 178.250 C 1311.557 156.997, 1311.816 154.027, 1313.646 150 C 1319.977 136.066, 1336.460 132.625, 1343.736 143.717 C 1345.294 146.092, 1345.536 149.657, 1345.808 174.203 L 1346.116 202 1351.558 202 L 1357 202 1357 173.114 L 1357 144.228 1354.207 138.864 C 1352.052 134.726, 1350.176 132.757, 1346.001 130.250 C 1341.259 127.403, 1339.715 127, 1333.544 127.001 C 1328.367 127.001, 1325.357 127.567, 1322.189 129.136 M 1563.275 128.654 C 1548.943 133.729, 1540.078 152.616, 1542.845 172.180 C 1544.796 185.974, 1550.956 195.835, 1560.533 200.497 C 1565.278 202.807, 1577.739 203.686, 1583.551 202.121 C 1589.363 200.556, 1596.484 195.695, 1599.926 190.943 C 1605.352 183.454, 1607.336 176.680, 1607.380 165.500 C 1607.431 152.377, 1604.822 144.243, 1598.198 136.875 C 1591.622 129.561, 1585.683 127.001, 1575.500 127.089 C 1571.100 127.127, 1565.599 127.831, 1563.275 128.654 M 1716.500 128.659 C 1712.561 130.732, 1708.201 134.771, 1705.877 138.500 L 1704.007 141.500 1704.004 134.750 L 1704 128 1699 128 L 1694 128 1694 176.500 L 1694 225 1699.500 225 L 1705 225 1705 208.272 L 1705 191.544 1707.999 195.182 C 1712.446 200.578, 1718.225 203.004, 1726.566 202.978 C 1735.483 202.950, 1740.179 200.820, 1746.277 194.036 C 1752.982 186.579, 1755.541 178.125, 1755.370 164 C 1755.154 146.133, 1749.286 134.629, 1737.500 128.966 C 1732.417 126.523, 1720.878 126.355, 1716.500 128.659 M 1620.207 157.280 C 1620.499 186.450, 1620.510 186.579, 1623.055 191.521 C 1624.595 194.512, 1627.300 197.670, 1629.868 199.475 C 1633.484 202.016, 1635.257 202.525, 1641.624 202.846 C 1651.557 203.348, 1656.524 201.435, 1662.472 194.820 L 1667 189.784 1667 195.892 L 1667 202 1672 202 L 1677 202 1677 165 L 1677 128 1671.500 128 L 1666 128 1665.994 147.750 C 1665.987 170.818, 1665.080 177.719, 1661.234 183.939 C 1654.308 195.143, 1638.887 196.168, 1633.334 185.794 C 1631.804 182.937, 1631.518 178.883, 1631.180 155.250 L 1630.790 128 1625.352 128 L 1619.915 128 1620.207 157.280 M 606 165.500 L 606 202 611.500 202 L 617 202 617 165.500 L 617 129 611.500 129 L 606 129 606 165.500 M 1199 165.500 L 1199 202 1204.500 202 L 1210 202 1210 165.500 L 1210 129 1204.500 129 L 1199 129 1199 165.500 M 319.186 149.705 L 309.033 163.500 309.016 232.250 L 309 301 329.500 301 L 350 301 350 232.109 L 350 163.217 340.926 150.859 C 335.935 144.061, 331.286 137.917, 330.595 137.205 C 329.576 136.155, 327.414 138.525, 319.186 149.705 M 657.914 136.958 C 653.314 138.348, 650.356 140.930, 647.633 145.933 C 640.473 159.088, 643.689 185.182, 653.183 190.970 C 657.145 193.386, 664.806 193.669, 668.901 191.551 C 672.820 189.525, 677.543 183.879, 679.120 179.336 C 680.601 175.071, 680.973 156.731, 679.701 150.729 C 678.816 146.555, 674.122 140.615, 670.102 138.583 C 666.496 136.760, 660.996 136.027, 657.914 136.958 M 917.007 137.593 C 910.669 140.342, 906.181 146.159, 904.543 153.750 L 903.841 157 923.051 157 L 942.260 157 941.751 152.482 C 940.380 140.323, 927.954 132.846, 917.007 137.593 M 987.771 137.200 C 980.589 139.104, 975.909 147.371, 977.428 155.471 C 979.851 168.386, 997.863 171.100, 1006.285 159.820 C 1008.786 156.471, 1008.797 148.162, 1006.307 143.932 C 1002.879 138.108, 995.060 135.268, 987.771 137.200 M 1246.024 139.186 C 1238.751 144.127, 1235.800 151.470, 1235.800 164.628 C 1235.800 183.076, 1242.521 193, 1255.016 193 C 1267.426 193, 1274.100 183.414, 1274.136 165.538 C 1274.164 151.837, 1271.899 145.313, 1265.389 140.348 C 1260.175 136.371, 1250.980 135.819, 1246.024 139.186 M 1566.024 139.186 C 1558.751 144.127, 1555.800 151.470, 1555.800 164.628 C 1555.800 183.076, 1562.521 193, 1575.016 193 C 1587.426 193, 1594.100 183.414, 1594.136 165.538 C 1594.164 151.837, 1591.899 145.313, 1585.389 140.348 C 1580.175 136.371, 1570.980 135.819, 1566.024 139.186 M 1717.312 138.945 C 1712.380 141.184, 1707.807 147.045, 1706.025 153.409 C 1705.242 156.206, 1704.918 161.630, 1705.169 167.707 C 1705.520 176.200, 1705.960 178.207, 1708.486 182.825 C 1713.598 192.168, 1723.155 195.512, 1731.939 191.031 C 1738.886 187.487, 1742.147 179.562, 1742.190 166.121 C 1742.261 143.785, 1731.806 132.365, 1717.312 138.945 M 1104.407 166.407 C 1096.572 168.308, 1092.414 171.348, 1090.388 176.655 C 1088.822 180.754, 1088.789 181.659, 1090.070 185.365 C 1093.076 194.060, 1105.830 196.512, 1115.783 190.308 C 1121.714 186.611, 1125.774 179.457, 1126.639 171.176 L 1127.285 165 1118.392 165.085 C 1113.502 165.132, 1107.208 165.726, 1104.407 166.407 M 318.225 194.250 L 318.500 210.500 322.750 210.807 L 327 211.115 327 194.557 L 327 178 322.475 178 L 317.950 178 318.225 194.250 M 333 194.557 L 333 211.115 337.250 210.807 L 341.500 210.500 341.775 194.250 L 342.050 178 337.525 178 L 333 178 333 194.557 M 42.437 192.304 C 42.149 193.054, 42.046 197.455, 42.207 202.084 L 42.500 210.500 49 210.500 L 55.500 210.500 55.795 203.795 L 56.089 197.089 62.795 196.795 C 69.202 196.513, 69.500 196.389, 69.500 194 L 69.500 191.500 56.230 191.221 C 45.756 191, 42.849 191.229, 42.437 192.304 M 79.214 200.750 L 79.500 210.500 85.750 210.798 L 92 211.095 92 204.048 L 92 197 99 197 L 106 197 106 194 L 106 191 92.464 191 L 78.928 191 79.214 200.750 M 116 201 L 116 211 122.500 211 L 129 211 129 204 L 129 197 136 197 L 143 197 143 194 L 143 191 129.500 191 L 116 191 116 201 M 153 201.019 L 153 211.095 159.250 210.798 L 165.500 210.500 165.795 203.795 L 166.089 197.089 172.795 196.795 C 179.202 196.513, 179.500 196.389, 179.500 194 L 179.500 191.500 166.250 191.221 L 153 190.942 153 201.019 M 189.425 192.334 C 189.144 193.067, 189.046 197.455, 189.207 202.084 L 189.500 210.500 196 210.500 L 202.500 210.500 202.796 203.750 L 203.091 197 209.546 197 L 216 197 216 194 L 216 191 202.969 191 C 193.030 191, 189.816 191.317, 189.425 192.334 M 226.214 200.750 L 226.500 210.500 232.750 210.798 L 239 211.095 239 204.048 L 239 197 246 197 L 253 197 253 194 L 253 191 239.464 191 L 225.928 191 226.214 200.750 M 975.821 200.926 C 972.662 203.411, 971.515 207.594, 972.955 211.381 C 976.886 221.722, 1013.976 221.084, 1017.959 210.607 C 1019.363 206.914, 1018.090 204.085, 1014.122 202.080 C 1011.297 200.653, 1006.979 200.094, 994.494 199.539 C 979.186 198.859, 978.372 198.919, 975.821 200.926 M 468 277.500 L 468 301 480.750 300.994 C 487.762 300.991, 495.150 300.530, 497.168 299.970 C 502.347 298.532, 507.001 292.966, 506.996 288.215 C 506.992 283.847, 504.003 278.453, 501.071 277.523 C 499.102 276.897, 499.144 276.750, 501.968 274.373 C 507.809 269.459, 506.701 260.227, 499.763 255.997 C 496.910 254.257, 494.711 254.007, 482.250 254.004 L 468 254 468 277.500 M 516 277.500 L 516 301 532.500 301 L 549 301 549 296 L 549 291 538 291 L 527 291 527 286.539 L 527 282.078 535.750 281.789 L 544.500 281.500 544.805 276.750 L 545.110 272 536.055 272 L 527 272 527 268 L 527 264 538 264 L 549 264 549 259 L 549 254 532.500 254 L 516 254 516 277.500 M 558 277.500 L 558 301 564 301 L 570 301 570 292 L 570 283 573.387 283 C 576.739 283, 576.809 283.094, 580.110 292 L 583.445 301 589.722 301 C 593.175 301, 596 300.602, 596 300.116 C 596 299.630, 594.260 295.050, 592.132 289.940 L 588.265 280.648 591.066 278.291 C 596.430 273.777, 597.269 265.154, 592.885 259.581 C 589.081 254.744, 586.235 254, 571.550 254 L 558 254 558 277.500 M 605 277.500 L 605 301 611 301 L 617 301 617 295.479 C 617 291.195, 617.588 289.069, 619.622 285.995 C 621.064 283.816, 622.527 282.216, 622.872 282.439 C 623.217 282.663, 625.300 286.922, 627.500 291.905 L 631.500 300.964 637.750 300.982 C 641.188 300.992, 644.007 300.663, 644.016 300.250 C 644.024 299.837, 641.031 293.105, 637.364 285.289 L 630.697 271.078 635.848 263.231 C 638.682 258.915, 641 255.073, 641 254.692 C 641 254.311, 638.584 254, 635.632 254 L 630.264 254 623.882 263.685 L 617.500 273.371 617.214 263.685 L 616.928 254 610.964 254 L 605 254 605 277.500 M 651 277.500 L 651 301 668 301 L 685 301 685 296 L 685 291 674 291 L 663 291 663 286.500 L 663 282 671.500 282 L 680 282 680 277 L 680 272 671.500 272 L 663 272 663 268 L 663 264 674 264 L 685 264 685 259 L 685 254 668 254 L 651 254 651 277.500 M 693 277.500 L 693 301 708 301 L 723 301 723 296 L 723 291 714 291 L 705 291 705 272.500 L 705 254 699 254 L 693 254 693 277.500 M 730 277.500 L 730 301 747 301 L 764 301 764 296 L 764 291 753 291 L 742 291 742 286.500 L 742 282 750.500 282 L 759 282 759 277 L 759 272 750.500 272 L 742 272 742 268 L 742 264 753 264 L 764 264 764 259 L 764 254 747 254 L 730 254 730 277.500 M 769 254.683 C 769 255.058, 772.150 261.082, 776 268.069 L 783 280.772 783 290.886 L 783 301 789 301 L 795 301 795 290.886 L 795 280.771 802 268 C 805.850 260.976, 809 254.952, 809 254.614 C 809 254.276, 806.625 254, 803.722 254 L 798.444 254 794.357 262.246 L 790.269 270.491 786.123 262.246 L 781.978 254 775.489 254 C 771.920 254, 769 254.307, 769 254.683 M 839 277.500 L 839 301 854 301 L 869 301 869 296 L 869 291 860 291 L 851 291 851 272.500 L 851 254 845 254 L 839 254 839 277.500 M 889.537 255.204 C 889.297 255.917, 886.086 265.950, 882.401 277.500 C 878.717 289.050, 875.496 299.063, 875.244 299.750 C 874.913 300.654, 876.310 301, 880.293 301 L 885.801 301 887.010 295.958 L 888.219 290.917 895.313 291.208 L 902.407 291.500 903.879 296.250 L 905.351 301 911.676 301 C 915.154 301, 917.994 300.887, 917.987 300.750 C 917.980 300.613, 914.701 290.150, 910.701 277.500 L 903.429 254.500 896.701 254.204 C 891.868 253.991, 889.850 254.273, 889.537 255.204 M 925 277.500 L 925 301 938.532 301 C 953.704 301, 957.028 300.133, 961.297 295.059 C 965.001 290.657, 965.049 284.400, 961.411 280.077 C 959.987 278.385, 958.232 277, 957.511 277 C 956.790 277, 957.730 275.470, 959.600 273.600 C 965.025 268.175, 963.972 260.920, 957.088 256.280 C 953.956 254.170, 952.636 254, 939.352 254 L 925 254 925 277.500 M 480 267.500 L 480 272 485.429 272 C 489.030 272, 491.386 271.471, 492.429 270.429 C 496.300 266.557, 492.948 263, 485.429 263 L 480 263 480 267.500 M 570 268.500 L 570 274 573.935 274 C 582.097 274, 585.774 270.356, 582.560 265.451 C 581.179 263.343, 580.186 263, 575.477 263 L 570 263 570 268.500 M 937 267.500 L 937 272 942.429 272 C 948.234 272, 951 270.375, 951 266.964 C 951 264.327, 948.009 263, 942.066 263 L 937 263 937 267.500 M 893.374 275.059 L 891.249 282 895.520 282 L 899.790 282 897.870 275.750 C 896.814 272.313, 895.848 269.189, 895.725 268.809 C 895.601 268.429, 894.543 271.241, 893.374 275.059 M 480 286 L 480 291 485.845 291 C 491.675 291, 495 289.246, 495 286.171 C 495 283.173, 491.008 281, 485.500 281 L 480 281 480 286 M 937 286 L 937 291 942.929 291 C 949.239 291, 952 289.474, 952 285.985 C 952 282.997, 948.105 281, 942.277 281 L 937 281 937 286" stroke="none" fill="#04313c" fill-rule="evenodd"/></svg>